<svg width="16" height="16" viewBox="0 0 16 16" fill="none" xmlns="http://www.w3.org/2000/svg">
<circle cx="8" cy="8" r="8" fill="#5D6F83"/>
<path d="M11.333 4.08301C11.4881 4.08301 11.6287 4.13183 11.7373 4.24023C11.8458 4.34874 11.8944 4.48952 11.8945 4.64453C11.8945 4.71534 11.883 4.78549 11.8604 4.85352L11.8594 4.85645C11.8369 4.92018 11.8025 4.98623 11.7607 5.05371V5.05566L7.65918 11.5137L7.65723 11.5166C7.52119 11.7224 7.32415 11.8339 7.08008 11.834C6.84567 11.834 6.65025 11.7157 6.49707 11.5186L4.24414 8.64941H4.24512C4.19401 8.58743 4.15245 8.52078 4.125 8.4502L4.12402 8.44824C4.09781 8.3771 4.08301 8.30353 4.08301 8.22949C4.08309 8.07153 4.13674 7.93065 4.24902 7.82129C4.36154 7.70884 4.5054 7.65538 4.66602 7.65527C4.87437 7.65527 5.04415 7.76098 5.17188 7.93359L7.04883 10.3896L10.8184 4.38281L10.8193 4.38086C10.8776 4.29018 10.9472 4.2115 11.0312 4.16113L11.1055 4.12402C11.1763 4.09527 11.2536 4.08302 11.333 4.08301ZM6.9043 11.6338C6.9098 11.6359 6.91534 11.6377 6.9209 11.6396C6.91534 11.6377 6.9098 11.6359 6.9043 11.6338ZM6.75293 11.543C6.77723 11.563 6.80167 11.5806 6.82715 11.5957C6.80168 11.5806 6.77722 11.563 6.75293 11.543ZM6.62793 11.416C6.65832 11.4552 6.69103 11.4885 6.72363 11.5186C6.69104 11.4885 6.65831 11.4552 6.62793 11.416ZM4.27637 8.07812C4.27223 8.08926 4.26876 8.10062 4.26562 8.1123C4.26876 8.10061 4.27223 8.08926 4.27637 8.07812ZM4.30762 8.0127C4.30084 8.02362 4.29562 8.03529 4.29004 8.04688C4.29562 8.03529 4.30084 8.02362 4.30762 8.0127ZM5.03125 8.02441C5.00869 7.99478 4.98535 7.96842 4.96094 7.94531C4.98535 7.96843 5.0087 7.99478 5.03125 8.02441ZM4.33984 7.96777C4.33491 7.97359 4.3307 7.98029 4.32617 7.98633C4.33846 7.96993 4.3519 7.95418 4.36719 7.93945L4.33984 7.96777ZM4.93652 7.92578C4.91757 7.90982 4.89893 7.89503 4.87891 7.88281C4.89893 7.89503 4.91757 7.90982 4.93652 7.92578ZM4.84375 7.86426C4.82513 7.85517 4.8066 7.84686 4.78711 7.84082C4.80661 7.84686 4.82513 7.85517 4.84375 7.86426ZM4.74805 7.83203C4.73859 7.83013 4.72937 7.82642 4.71973 7.8252L4.66602 7.82227C4.6941 7.82227 4.72149 7.82669 4.74805 7.83203ZM11.7285 4.64453C11.7285 4.66143 11.7255 4.67841 11.7236 4.69531C11.724 4.69147 11.7262 4.68743 11.7266 4.68359L11.7285 4.64453C11.7285 4.61793 11.7253 4.59265 11.7217 4.56836C11.7253 4.59263 11.7285 4.61793 11.7285 4.64453ZM11.7119 4.52539C11.7094 4.51545 11.7073 4.5056 11.7041 4.49609C11.7073 4.50559 11.7094 4.51545 11.7119 4.52539ZM11.6914 4.46484C11.6852 4.451 11.6787 4.4376 11.6709 4.4248C11.6787 4.4376 11.6852 4.45101 11.6914 4.46484ZM11.6592 4.40723C11.6545 4.4005 11.6507 4.39313 11.6455 4.38672L11.6191 4.3584L11.6592 4.40723Z" fill="white"/>
</svg>
