<svg width="20" height="20" viewBox="0 0 20 20" fill="none" xmlns="http://www.w3.org/2000/svg">
<path d="M9.99805 1.66602C11.1479 1.66607 12.2325 1.88489 13.249 2.32324H13.248C14.2599 2.75925 15.1432 3.35249 15.8945 4.10254C16.6457 4.85256 17.2401 5.73439 17.6768 6.74609C18.1152 7.76219 18.334 8.8471 18.334 9.99707C18.3339 11.1466 18.1153 12.2307 17.6777 13.2471C17.2417 14.2595 16.6478 15.1428 15.8965 15.8936C15.1453 16.6441 14.2639 17.2385 13.2539 17.6758C12.2394 18.115 11.1548 18.3336 10.0029 18.333C8.85137 18.3324 7.76684 18.114 6.75195 17.6768H6.75098C5.73935 17.2402 4.85663 16.6461 4.10547 15.8955C3.35441 15.145 2.7608 14.2633 2.32422 13.2529C1.88566 12.2379 1.66699 11.1532 1.66699 10.002C1.667 8.85075 1.88569 7.7656 2.32422 6.75C2.76018 5.73851 3.35328 4.8556 4.10254 4.10449C4.85192 3.35339 5.73394 2.75978 6.74609 2.32324C7.76282 1.88478 8.848 1.66602 9.99805 1.66602ZM10.0029 18.1074C10.1321 18.1075 10.2603 18.1032 10.3877 18.0977C10.2604 18.1032 10.1321 18.1075 10.0029 18.1074ZM10.5625 18.0869C10.6321 18.0824 10.7015 18.0785 10.7705 18.0723C10.7015 18.0785 10.6321 18.0824 10.5625 18.0869ZM10.9492 18.0527C11.0251 18.0442 11.1006 18.035 11.1758 18.0244C11.1006 18.035 11.0251 18.0442 10.9492 18.0527ZM11.3174 18.0029C11.3943 17.9907 11.4707 17.9774 11.5469 17.9629C11.4707 17.9774 11.3943 17.9907 11.3174 18.0029ZM11.6973 17.9336C11.7778 17.9166 11.8577 17.8974 11.9375 17.8779C11.8577 17.8974 11.7778 17.9166 11.6973 17.9336ZM12.0664 17.8467C12.1651 17.8208 12.2629 17.7925 12.3604 17.7627C12.2629 17.7925 12.1651 17.8208 12.0664 17.8467ZM12.4229 17.7441C12.5468 17.7051 12.6701 17.6635 12.792 17.6182C12.67 17.6636 12.5468 17.7051 12.4229 17.7441ZM13.1641 17.4688L13.4824 17.3232C13.4885 17.3203 13.494 17.3164 13.5 17.3135C13.3896 17.3668 13.2779 17.4195 13.1641 17.4688ZM13.627 17.25C13.6997 17.2134 13.7716 17.1761 13.8428 17.1377C13.7716 17.1761 13.6997 17.2134 13.627 17.25ZM13.957 17.0752C14.0307 17.034 14.1038 16.9924 14.1758 16.9492C14.1038 16.9924 14.0307 17.034 13.957 17.0752ZM4.61719 5.57227C4.13251 6.16874 3.75093 6.82407 3.47461 7.53906C3.17013 8.32714 3.01859 9.14696 3.01855 9.99902C3.01855 11.9524 3.69382 13.5989 5.04688 14.9521C6.40007 16.3053 8.0466 16.9814 10 16.9814C10.8529 16.9814 11.6729 16.8311 12.4609 16.5322C13.1764 16.2607 13.8314 15.8769 14.4287 15.3828L4.61719 5.57227ZM14.2803 16.8848C14.3451 16.8446 14.4092 16.8035 14.4727 16.7617C14.4092 16.8035 14.3451 16.8446 14.2803 16.8848ZM14.6074 16.6719C14.6679 16.6303 14.7269 16.587 14.7861 16.5439C14.727 16.587 14.6679 16.6303 14.6074 16.6719ZM14.8867 16.4707C14.9802 16.4004 15.0729 16.3291 15.1631 16.2549C15.0729 16.3291 14.9802 16.4004 14.8867 16.4707ZM15.457 16.001C15.3649 16.0846 15.2707 16.1659 15.1748 16.2451C15.2708 16.1658 15.3658 16.0847 15.458 16.001H15.457ZM4.26465 15.7363C4.35185 15.8235 4.44136 15.9084 4.53223 15.9912C4.44146 15.9085 4.35275 15.8234 4.26562 15.7363C4.17434 15.6451 4.08458 15.5522 3.99805 15.457C4.08449 15.5522 4.17345 15.6452 4.26465 15.7363ZM4.39648 14.5742C4.5492 14.7584 4.71316 14.9378 4.8877 15.1123V15.1113C4.7131 14.9367 4.54925 14.7575 4.39648 14.5732V14.5742ZM10 3.01758C9.14305 3.01762 8.31853 3.16416 7.52539 3.45801C6.80779 3.72356 6.15569 4.10816 5.56836 4.61133L15.3838 14.4268C15.8783 13.83 16.2628 13.1758 16.5332 12.4609L16.6387 12.1641C16.868 11.4671 16.9824 10.7453 16.9824 9.99902C16.9823 8.04563 16.3063 6.3991 14.9531 5.0459C13.5999 3.69284 11.9534 3.01758 10 3.01758ZM17.5039 13.0752C17.5409 12.9864 17.5767 12.8974 17.6104 12.8076C17.5767 12.8974 17.5409 12.9864 17.5039 13.0752ZM17.666 12.6484C17.6876 12.5866 17.7104 12.5252 17.7305 12.4629C17.7105 12.5252 17.6876 12.5866 17.666 12.6484ZM17.7871 12.2715C17.8056 12.2084 17.8249 12.1456 17.8418 12.082C17.8249 12.1456 17.8056 12.2084 17.7871 12.2715ZM17.876 11.9424C17.8952 11.8642 17.9139 11.7859 17.9307 11.707C17.9139 11.7859 17.8951 11.8642 17.876 11.9424ZM17.9609 11.5566C17.9776 11.4698 17.993 11.3826 18.0068 11.2949C17.993 11.3826 17.9776 11.4698 17.9609 11.5566ZM18.0225 11.1914C18.0389 11.0772 18.0538 10.9624 18.0654 10.8467C18.0538 10.9624 18.0389 11.0772 18.0225 11.1914ZM18.1084 9.99707C18.1084 9.86803 18.1043 9.73957 18.0986 9.6123C18.1043 9.73955 18.1084 9.86805 18.1084 9.99707ZM1.92969 9.20898C1.91958 9.31706 1.91119 9.42575 1.90527 9.53516C1.91118 9.42574 1.91959 9.31706 1.92969 9.20898ZM18.0898 9.46484C18.0844 9.37685 18.0785 9.28928 18.0703 9.20215C18.0785 9.28928 18.0844 9.37685 18.0898 9.46484ZM1.97559 8.82324C1.9627 8.91392 1.95126 9.00503 1.94141 9.09668C1.95125 9.00503 1.9627 8.91392 1.97559 8.82324ZM18.0547 9.05469C18.0458 8.97589 18.0365 8.89742 18.0254 8.81934C18.0365 8.89742 18.0459 8.97589 18.0547 9.05469ZM2.04004 8.43945C2.02398 8.52275 2.00853 8.60629 1.99512 8.69043C2.00852 8.60629 2.02399 8.52275 2.04004 8.43945ZM18.0039 8.68262C17.9922 8.60969 17.9795 8.53715 17.9658 8.46484C17.9795 8.53715 17.9923 8.60968 18.0039 8.68262ZM2.11914 8.07422C2.10069 8.1501 2.08259 8.22613 2.06641 8.30273C2.08259 8.22613 2.1007 8.1501 2.11914 8.07422ZM17.9248 8.25781C17.9146 8.21101 17.9026 8.1647 17.8916 8.11816C17.9026 8.1647 17.9147 8.21101 17.9248 8.25781ZM3.05859 8.0752C3.05281 8.09555 3.04856 8.11632 3.04297 8.13672C3.05216 8.10322 3.06062 8.06952 3.07031 8.03613L3.05859 8.0752ZM2.24707 7.61035C2.21351 7.71844 2.18113 7.82692 2.15234 7.93652C2.18112 7.82691 2.21352 7.71844 2.24707 7.61035ZM17.8408 7.90918C17.8207 7.83355 17.7988 7.75851 17.7764 7.68359C17.7988 7.75851 17.8207 7.83354 17.8408 7.90918ZM2.33203 7.35449C2.30649 7.4276 2.28015 7.5004 2.25684 7.57422C2.28015 7.5004 2.30649 7.4276 2.33203 7.35449ZM17.7441 7.57422C17.7055 7.45153 17.664 7.32974 17.6191 7.20898C17.664 7.32974 17.7055 7.45152 17.7441 7.57422ZM17.3496 6.57324C17.3378 6.54817 17.3265 6.52295 17.3145 6.49805C17.3265 6.52295 17.3378 6.54817 17.3496 6.57324ZM17.208 6.28613C17.1908 6.25283 17.1738 6.21951 17.1562 6.18652C17.1738 6.21951 17.1908 6.25283 17.208 6.28613ZM15.8242 5.70508H15.8252H15.8242ZM17.0361 5.96973C17.0169 5.93598 16.9972 5.90253 16.9775 5.86914C16.9972 5.90253 17.0169 5.93598 17.0361 5.96973ZM16.8672 5.68652C16.8263 5.62108 16.7848 5.55621 16.7422 5.49219C16.7848 5.55621 16.8263 5.62107 16.8672 5.68652ZM16.6836 5.40527C16.6429 5.34584 16.6007 5.28767 16.5586 5.22949C16.6007 5.28767 16.6429 5.34584 16.6836 5.40527ZM15.1133 4.88672H15.1123H15.1133ZM16.4512 5.08301C16.4258 5.04954 16.3999 5.01643 16.374 4.9834C16.3999 5.01643 16.4258 5.04954 16.4512 5.08301ZM4.52344 4.0127C4.43436 4.09419 4.34722 4.17797 4.26172 4.26367V4.26465C4.34733 4.17883 4.43426 4.09431 4.52344 4.0127ZM4.80371 3.76855C4.73754 3.82362 4.67275 3.88029 4.6084 3.9375C4.67274 3.88028 4.73755 3.82364 4.80371 3.76855ZM5.07812 3.55176C5.02308 3.5936 4.96892 3.63647 4.91504 3.67969C4.96891 3.63645 5.02309 3.59362 5.07812 3.55176ZM5.37012 3.33984C5.31723 3.37641 5.26478 3.41343 5.21289 3.45117C5.26476 3.41341 5.31724 3.37643 5.37012 3.33984ZM14.5439 3.28223V3.28125V3.28223ZM5.67383 3.14062C5.62218 3.17302 5.57029 3.20484 5.51953 3.23828C5.57028 3.20482 5.62218 3.17304 5.67383 3.14062ZM6 2.94531C5.94236 2.97788 5.88473 3.01016 5.82812 3.04395C5.88472 3.01015 5.94237 2.97789 6 2.94531ZM6.47168 2.69727C6.361 2.75102 6.25174 2.80642 6.14453 2.86426C6.25177 2.80639 6.36097 2.75104 6.47168 2.69727ZM13.0703 2.49414C12.9831 2.45779 12.8959 2.42173 12.8076 2.38867C12.8959 2.42173 12.9831 2.45779 13.0703 2.49414ZM12.6816 2.34375C12.6049 2.3165 12.5278 2.29041 12.4502 2.26562C12.5278 2.2904 12.6049 2.3165 12.6816 2.34375ZM12.3105 2.22266C12.2356 2.20027 12.1606 2.17832 12.085 2.1582C12.1606 2.1783 12.2356 2.20028 12.3105 2.22266ZM11.9434 2.12305C11.8652 2.10384 11.7869 2.08517 11.708 2.06836C11.7869 2.08515 11.8652 2.10385 11.9434 2.12305ZM11.5576 2.03809C11.4795 2.02305 11.4011 2.00978 11.3223 1.99707C11.4011 2.00977 11.4795 2.02306 11.5576 2.03809ZM10.415 1.90137C10.678 1.91405 10.937 1.93972 11.1924 1.97656C10.937 1.93968 10.678 1.91405 10.415 1.90137ZM1.90137 9.59766C1.8952 9.72982 1.89265 9.86296 1.89258 9.99707C1.89265 9.86297 1.89521 9.72982 1.90137 9.59766Z" fill="#333D48"/>
</svg>
