<svg width="16" height="16" viewBox="0 0 16 16" fill="none" xmlns="http://www.w3.org/2000/svg">
<path d="M3.3335 9.92732C3.3335 9.47382 3.44901 9.02674 3.68004 8.58608C3.91106 8.14114 4.24263 7.7347 4.67473 7.36677C5.10684 6.99884 5.62237 6.70578 6.22133 6.48758L6.43311 3.54199C6.12079 3.36658 5.82987 3.1869 5.56034 3.00293C5.29508 2.81469 5.06192 2.63286 4.86084 2.45745C4.65976 2.28204 4.5036 2.12161 4.39237 1.97614C4.22979 1.76223 4.14851 1.55259 4.14851 1.34724C4.14851 1.15044 4.21696 0.987863 4.35386 0.859515C4.49077 0.731166 4.6726 0.666992 4.89934 0.666992H11.7403C11.9628 0.666992 12.1425 0.731166 12.2794 0.859515C12.4206 0.987863 12.4911 1.15044 12.4911 1.34724C12.4911 1.55259 12.4077 1.76223 12.2409 1.97614C12.1296 2.12161 11.9735 2.28204 11.7724 2.45745C11.5713 2.63286 11.336 2.81255 11.0665 2.99651C10.8012 3.18048 10.5124 3.3623 10.2001 3.54199L10.4119 6.48758C11.0109 6.70578 11.5264 6.99884 11.9585 7.36677C12.3906 7.7347 12.7222 8.14114 12.9532 8.58608C13.1842 9.02674 13.2997 9.47382 13.2997 9.92732C13.2997 10.2011 13.2142 10.4215 13.043 10.5883C12.8762 10.7509 12.6473 10.8322 12.3564 10.8322H8.88456V13.8291C8.88456 14.073 8.86317 14.304 8.82038 14.5222C8.7776 14.7404 8.72412 14.9308 8.65995 15.0933C8.59577 15.2602 8.5316 15.3907 8.46743 15.4848C8.40753 15.5789 8.35833 15.626 8.31982 15.626C8.27704 15.626 8.22356 15.5789 8.15939 15.4848C8.09949 15.3907 8.03746 15.2602 7.97328 15.0933C7.90911 14.9308 7.85563 14.7404 7.81285 14.5222C7.77007 14.304 7.74868 14.073 7.74868 13.8291V10.8322H4.27686C3.99021 10.8322 3.76132 10.7509 3.59019 10.5883C3.41906 10.4215 3.3335 10.2011 3.3335 9.92732Z" fill="#F64C4F"/>
</svg>
