<svg width="24" height="24" viewBox="0 0 24 24" fill="none" xmlns="http://www.w3.org/2000/svg">
<path d="M2.56445 19.9981V7.78642C2.56445 7.484 2.62796 7.22392 2.75498 7.00617C2.88804 6.78238 3.09066 6.59488 3.36284 6.44367L7.66324 3.97593C7.74187 3.92755 7.82655 3.88218 7.91728 3.83984C8.008 3.79146 8.09268 3.74912 8.17131 3.71283V18.7461L4.36082 20.8056C4.07655 20.9628 3.82252 21.0415 3.59873 21.0415C3.27211 21.0415 3.01808 20.9507 2.83663 20.7693C2.65518 20.5878 2.56445 20.3308 2.56445 19.9981ZM9.41425 18.5737V3.55859C9.49893 3.57674 9.58361 3.60396 9.66828 3.64025C9.75901 3.67654 9.84369 3.71888 9.92232 3.76726L14.4042 6.50718V21.3136C14.3376 21.2955 14.2681 21.2713 14.1955 21.2411C14.129 21.2108 14.0594 21.1775 13.9868 21.1413L9.41425 18.5737ZM15.638 21.2864V6.3348L19.639 4.11202C19.9233 3.95476 20.1774 3.87613 20.4011 3.87613C20.7278 3.87613 20.9818 3.96686 21.1632 4.14831C21.3447 4.32976 21.4354 4.58682 21.4354 4.91948V17.1402C21.4354 17.4427 21.3689 17.7058 21.2358 17.9296C21.1088 18.1473 20.9092 18.3318 20.637 18.483L15.9102 21.1685C15.8679 21.1927 15.8225 21.2138 15.7741 21.232C15.7318 21.2562 15.6864 21.2743 15.638 21.2864Z" fill="white"/>
</svg>
