<svg width="24" height="24" viewBox="0 0 24 24" fill="none" xmlns="http://www.w3.org/2000/svg">
<path d="M11.0844 22.0438C10.7219 22.0438 10.4094 21.9406 10.1469 21.7344C9.88438 21.5344 9.71563 21.2594 9.64063 20.9094L9.22813 19.1563L8.92813 19.0531L7.40938 19.9906C7.10313 20.1781 6.78438 20.25 6.45313 20.2063C6.12188 20.1688 5.82812 20.0219 5.57188 19.7656L4.26875 18.4625C4.00625 18.2 3.85313 17.9062 3.80938 17.5813C3.77188 17.25 3.85 16.9344 4.04375 16.6344L4.99063 15.1156L4.8875 14.8344L3.13437 14.4219C2.79062 14.3469 2.51563 14.1781 2.30938 13.9156C2.10313 13.6469 2 13.3344 2 12.9781V11.1219C2 10.7656 2.1 10.4563 2.3 10.1938C2.50625 9.93125 2.78437 9.75938 3.13437 9.67813L4.86875 9.25625L4.98125 8.95625L4.03438 7.4375C3.84063 7.1375 3.7625 6.825 3.8 6.5C3.84375 6.16875 3.99688 5.87188 4.25938 5.60938L5.5625 4.29688C5.81875 4.04688 6.10938 3.9 6.43438 3.85625C6.76563 3.8125 7.08438 3.88438 7.39063 4.07188L8.90938 5.00938L9.22813 4.8875L9.64063 3.13437C9.71563 2.79062 9.88438 2.51563 10.1469 2.30938C10.4094 2.10313 10.7219 2 11.0844 2H12.9781C13.3406 2 13.65 2.10313 13.9062 2.30938C14.1687 2.51563 14.3406 2.79062 14.4219 3.13437L14.825 4.8875L15.1438 5.00938L16.6719 4.07188C16.9719 3.88438 17.2875 3.8125 17.6187 3.85625C17.95 3.9 18.2406 4.04688 18.4906 4.29688L19.8031 5.60938C20.0656 5.87188 20.2156 6.16875 20.2531 6.5C20.2906 6.825 20.2156 7.1375 20.0281 7.4375L19.0719 8.95625L19.1938 9.25625L20.9281 9.67813C21.2719 9.75938 21.5469 9.93125 21.7531 10.1938C21.9594 10.4563 22.0625 10.7656 22.0625 11.1219V12.9781C22.0625 13.3344 21.9594 13.6469 21.7531 13.9156C21.5469 14.1781 21.2719 14.3469 20.9281 14.4219L19.175 14.8344L19.0625 15.1156L20.0188 16.6344C20.2063 16.9344 20.2781 17.25 20.2344 17.5813C20.1969 17.9062 20.05 18.2 19.7938 18.4625L18.4813 19.7656C18.225 20.0219 17.9313 20.1688 17.6 20.2063C17.2688 20.25 16.9531 20.1781 16.6531 19.9906L15.125 19.0531L14.825 19.1563L14.4219 20.9094C14.3406 21.2594 14.1687 21.5344 13.9062 21.7344C13.65 21.9406 13.3406 22.0438 12.9781 22.0438H11.0844ZM11.2344 20.5813H12.8281C12.9844 20.5813 13.0719 20.5094 13.0906 20.3656L13.6625 18.0406C13.95 17.9719 14.2219 17.8844 14.4781 17.7781C14.7344 17.6656 14.9625 17.5469 15.1625 17.4219L17.2063 18.6781C17.3375 18.7656 17.4563 18.75 17.5625 18.6313L18.6594 17.525C18.7656 17.4313 18.7781 17.3156 18.6969 17.1781L17.4406 15.1531C17.5531 14.9531 17.6625 14.725 17.7688 14.4688C17.8813 14.2125 17.975 13.9406 18.05 13.6531L20.3844 13.1C20.5281 13.075 20.6 12.9844 20.6 12.8281V11.2625C20.6 11.1125 20.5281 11.0219 20.3844 10.9906L18.0594 10.4281C17.9844 10.1219 17.8875 9.8375 17.7688 9.575C17.65 9.3125 17.5469 9.09375 17.4594 8.91875L18.7063 6.89375C18.7938 6.75625 18.7844 6.63438 18.6781 6.52813L17.5719 5.44063C17.4594 5.34063 17.3375 5.325 17.2063 5.39375L15.1719 6.63125C14.9656 6.51875 14.7344 6.40937 14.4781 6.30312C14.2281 6.19062 13.9563 6.09687 13.6625 6.02187L13.0906 3.67813C13.0719 3.53437 12.9844 3.4625 12.8281 3.4625H11.2344C11.0781 3.4625 10.9875 3.53437 10.9625 3.67813L10.4094 6.00313C10.1281 6.07812 9.85 6.17188 9.575 6.28438C9.30625 6.39688 9.07188 6.50938 8.87188 6.62188L6.84688 5.39375C6.71563 5.325 6.59688 5.34063 6.49063 5.44063L5.375 6.52813C5.275 6.63438 5.26563 6.75625 5.34688 6.89375L6.59375 8.91875C6.5125 9.09375 6.40938 9.3125 6.28438 9.575C6.16563 9.8375 6.06875 10.1219 5.99375 10.4281L3.67813 10.9906C3.53437 11.0219 3.4625 11.1125 3.4625 11.2625V12.8281C3.4625 12.9844 3.53437 13.075 3.67813 13.1L6.00313 13.6531C6.07812 13.9406 6.17188 14.2125 6.28438 14.4688C6.39688 14.725 6.50625 14.9531 6.6125 15.1531L5.35625 17.1781C5.28125 17.3156 5.29375 17.4313 5.39375 17.525L6.5 18.6313C6.60625 18.75 6.72188 18.7656 6.84688 18.6781L8.89063 17.4219C9.09063 17.5469 9.31875 17.6656 9.575 17.7781C9.8375 17.8844 10.1125 17.9719 10.4 18.0406L10.9625 20.3656C10.9875 20.5094 11.0781 20.5813 11.2344 20.5813ZM12.0312 15.5938C11.3687 15.5938 10.7656 15.4344 10.2219 15.1156C9.68438 14.7906 9.25625 14.3594 8.9375 13.8219C8.61875 13.2781 8.45938 12.6781 8.45938 12.0219C8.45938 11.3594 8.61875 10.7594 8.9375 10.2219C9.25625 9.68438 9.68438 9.25625 10.2219 8.9375C10.7656 8.6125 11.3687 8.45 12.0312 8.45C12.6875 8.45 13.2844 8.6125 13.8219 8.9375C14.3656 9.25625 14.7969 9.68438 15.1156 10.2219C15.4406 10.7594 15.6031 11.3594 15.6031 12.0219C15.6031 12.6781 15.4406 13.2781 15.1156 13.8219C14.7969 14.3594 14.3656 14.7906 13.8219 15.1156C13.2844 15.4344 12.6875 15.5938 12.0312 15.5938ZM12.0312 14.1406C12.4187 14.1406 12.7719 14.0469 13.0906 13.8594C13.4156 13.6656 13.6719 13.4094 13.8594 13.0906C14.0531 12.7656 14.15 12.4094 14.15 12.0219C14.15 11.6281 14.0531 11.2719 13.8594 10.9531C13.6719 10.6344 13.4156 10.3813 13.0906 10.1938C12.7719 10 12.4187 9.90312 12.0312 9.90312C11.6375 9.90312 11.2812 10 10.9625 10.1938C10.6437 10.3813 10.3875 10.6344 10.1938 10.9531C10.0063 11.2719 9.9125 11.6281 9.9125 12.0219C9.9125 12.4094 10.0063 12.7656 10.1938 13.0906C10.3875 13.4094 10.6437 13.6656 10.9625 13.8594C11.2812 14.0469 11.6375 14.1406 12.0312 14.1406Z" fill="white"/>
</svg>
