<svg width="24" height="24" viewBox="0 0 24 24" fill="none" xmlns="http://www.w3.org/2000/svg">
<path d="M11.9492 17C11.8255 17 11.7116 16.9772 11.6074 16.9316C11.4967 16.8861 11.3958 16.8177 11.3047 16.7266L3.72656 8.98242C3.55729 8.80664 3.47266 8.59505 3.47266 8.34766C3.47266 8.17839 3.51172 8.02865 3.58984 7.89844C3.66797 7.76172 3.77539 7.6543 3.91211 7.57617C4.04232 7.49154 4.19206 7.44922 4.36133 7.44922C4.60221 7.44922 4.8138 7.53711 4.99609 7.71289L11.9492 14.8223L18.9023 7.71289C19.0846 7.53711 19.2962 7.44922 19.5371 7.44922C19.7064 7.44922 19.8561 7.49154 19.9863 7.57617C20.123 7.6543 20.2305 7.76172 20.3086 7.89844C20.3867 8.02865 20.4258 8.17839 20.4258 8.34766C20.4258 8.59505 20.3379 8.80664 20.1621 8.98242L12.5938 16.7266C12.5026 16.8177 12.4049 16.8861 12.3008 16.9316C12.1901 16.9772 12.0729 17 11.9492 17Z" fill="#B1BCC8"/>
</svg>
