<svg width="24" height="24" viewBox="0 0 24 24" fill="none" xmlns="http://www.w3.org/2000/svg">
<path d="M4.96082 20.7353C4.10604 20.7353 3.46358 20.5202 3.03343 20.0901C2.6088 19.6599 2.39648 19.0119 2.39648 18.1461V5.59743C2.39648 4.73713 2.6088 4.08915 3.03343 3.65349C3.46358 3.21783 4.10604 3 4.96082 3H13.7457C14.6005 3 15.2402 3.21783 15.6649 3.65349C16.095 4.08915 16.3101 4.73713 16.3101 5.59743V9.65901H14.9783V5.62224C14.9783 5.20864 14.868 4.89154 14.6474 4.67096C14.4323 4.44485 14.1097 4.3318 13.6796 4.3318H5.027C4.59685 4.3318 4.27148 4.44485 4.0509 4.67096C3.83582 4.89154 3.72829 5.20864 3.72829 5.62224V18.1213C3.72829 18.5349 3.83582 18.852 4.0509 19.0726C4.27148 19.2932 4.59685 19.4035 5.027 19.4035H13.6796C14.1097 19.4035 14.4323 19.2932 14.6474 19.0726C14.868 18.852 14.9783 18.5349 14.9783 18.1213V14.0763H16.3101V18.1461C16.3101 19.0119 16.095 19.6599 15.6649 20.0901C15.2402 20.5202 14.6005 20.7353 13.7457 20.7353H4.96082ZM9.50218 11.8676C9.50218 11.6912 9.5656 11.5368 9.69244 11.4044C9.81928 11.2721 9.96818 11.2059 10.1391 11.2059H18.5518L19.7926 11.2638L19.3046 10.7923L17.9397 9.51838C17.8073 9.40257 17.7412 9.25092 17.7412 9.06342C17.7412 8.88695 17.7963 8.74357 17.9066 8.63327C18.0169 8.52298 18.1548 8.46783 18.3202 8.46783C18.4801 8.46783 18.6263 8.53125 18.7586 8.65809L21.3891 11.3879C21.4719 11.4706 21.527 11.5506 21.5546 11.6278C21.5877 11.705 21.6042 11.7849 21.6042 11.8676C21.6042 11.9504 21.5877 12.0303 21.5546 12.1075C21.527 12.1847 21.4719 12.2647 21.3891 12.3474L18.7586 15.0689C18.6263 15.2013 18.4801 15.2675 18.3202 15.2675C18.1548 15.2675 18.0169 15.2096 17.9066 15.0938C17.7963 14.9779 17.7412 14.8346 17.7412 14.6636C17.7412 14.4816 17.8073 14.3327 17.9397 14.2169L19.3046 12.9347L19.7926 12.4715L18.5518 12.5211H10.1391C9.96818 12.5211 9.81928 12.4577 9.69244 12.3309C9.5656 12.1985 9.50218 12.0441 9.50218 11.8676Z" fill="#333D48"/>
</svg>
