<svg width="20" height="20" viewBox="0 0 20 20" fill="none" xmlns="http://www.w3.org/2000/svg">
<path d="M13.747 4.83559C13.9408 4.83559 14.2713 4.86568 14.7383 4.92585C15.2053 4.98603 15.7163 5.15796 16.2714 5.44165C16.8354 5.71674 17.3464 6.17666 17.8046 6.82141C17.7782 6.8472 17.6504 6.94176 17.4213 7.10509C17.1922 7.25983 16.9367 7.49194 16.6547 7.80142C16.3728 8.1023 16.126 8.48915 15.9146 8.96196C15.7031 9.42618 15.5974 9.98066 15.5974 10.6254C15.5974 11.3647 15.7295 11.9923 15.9939 12.5081C16.267 13.0239 16.5798 13.4408 16.9323 13.7589C17.2936 14.0683 17.6108 14.2962 17.8839 14.4423C18.1659 14.5884 18.3157 14.6658 18.3333 14.6744C18.3245 14.7088 18.2099 15.014 17.9896 15.5899C17.7782 16.1659 17.4257 16.8064 16.9323 17.5113C16.5005 18.1216 16.0335 18.6847 15.5313 19.2005C15.0378 19.7163 14.4431 19.9742 13.747 19.9742C13.28 19.9742 12.8967 19.9097 12.5971 19.7808C12.2975 19.6432 11.9891 19.51 11.6719 19.381C11.3547 19.2435 10.9274 19.1747 10.3899 19.1747C9.86999 19.1747 9.43383 19.2435 9.08138 19.381C8.73773 19.5186 8.40731 19.6561 8.0901 19.7937C7.7817 19.9312 7.41603 20 6.99309 20C6.34986 20 5.78593 19.7507 5.30131 19.2521C4.81668 18.7535 4.31884 18.156 3.80778 17.4597C3.21742 16.6344 2.71077 15.6286 2.28783 14.4423C1.87369 13.2474 1.66663 12.0438 1.66663 10.8317C1.66663 9.53363 1.91775 8.44616 2.42 7.56931C2.92224 6.68386 3.56547 6.01762 4.34968 5.5706C5.1427 5.11498 5.96216 4.88717 6.80805 4.88717C7.25743 4.88717 7.68037 4.96024 8.07688 5.10638C8.47339 5.24393 8.84347 5.38577 9.18711 5.53192C9.53957 5.67806 9.85678 5.75113 10.1387 5.75113C10.4119 5.75113 10.7291 5.67376 11.0904 5.51902C11.4516 5.36428 11.857 5.21384 12.3063 5.0677C12.7557 4.91296 13.2359 4.83559 13.747 4.83559ZM13.0201 3.19794C12.6764 3.60198 12.2447 3.94154 11.7248 4.21663C11.2049 4.48313 10.7115 4.61638 10.2445 4.61638C10.1475 4.61638 10.055 4.60778 9.96692 4.59059C9.95811 4.5648 9.94929 4.51752 9.94048 4.44874C9.93167 4.37997 9.92727 4.3069 9.92727 4.22953C9.92727 3.71373 10.0418 3.21513 10.2709 2.73372C10.5 2.24371 10.7599 1.83967 11.0507 1.5216C11.4208 1.09177 11.8878 0.73501 12.4517 0.451322C13.0156 0.167634 13.5531 0.0171932 14.0642 0C14.0906 0.111756 14.1038 0.245003 14.1038 0.399742C14.1038 0.915538 14.0025 1.41844 13.7999 1.90845C13.5972 2.38986 13.3373 2.81969 13.0201 3.19794Z" fill="white"/>
</svg>
