<svg width="24" height="24" viewBox="0 0 24 24" fill="none" xmlns="http://www.w3.org/2000/svg">
<path d="M2.83718 12.0007C2.83718 11.7486 2.918 11.5417 3.07964 11.38C3.23481 11.2184 3.43848 11.1376 3.69063 11.1376L16.4633 11.1376L19.3533 11.2345L19.1594 11.7776L15.348 8.30567L13.1755 6.09446C13.098 6.01687 13.0398 5.92312 13.001 5.81321C12.9622 5.70976 12.9428 5.59985 12.9428 5.48347C12.9428 5.24424 13.0236 5.04381 13.1852 4.88217C13.3469 4.727 13.5473 4.64942 13.7865 4.64942C14.0193 4.64941 14.2294 4.73993 14.4169 4.92097L20.8663 11.3509C20.9633 11.4479 21.0344 11.5514 21.0796 11.6613C21.1314 11.7712 21.1572 11.8843 21.1572 12.0007C21.1572 12.1236 21.1314 12.2399 21.0796 12.3498C21.0344 12.4598 20.9633 12.56 20.8663 12.6505L14.4169 19.0901C14.2294 19.2647 14.0193 19.352 13.7865 19.352C13.5473 19.352 13.3469 19.2712 13.1852 19.1095C13.0236 18.9544 12.9428 18.7572 12.9428 18.518C12.9428 18.4016 12.9622 18.2884 13.001 18.1785C13.0398 18.0751 13.098 17.9845 13.1755 17.907L15.348 15.6958L19.1594 12.2141L19.3533 12.7669L16.4633 12.8639L3.69063 12.8639C3.43848 12.8639 3.23481 12.783 3.07964 12.6214C2.918 12.4598 2.83718 12.2529 2.83718 12.0007Z" fill="#6582E1"/>
</svg>
