<svg width="24" height="24" viewBox="0 0 24 24" fill="none" xmlns="http://www.w3.org/2000/svg">
<path d="M11.9798 22.1918C11.4334 22.1918 10.9448 22.0728 10.5141 21.835C10.0834 21.5971 9.73624 21.2853 9.47267 20.8996C9.21552 20.5139 9.06445 20.0961 9.01945 19.6461H14.9402C14.8952 20.0961 14.7409 20.5139 14.4773 20.8996C14.2137 21.2853 13.8666 21.5971 13.4359 21.835C13.0116 22.0728 12.5262 22.1918 11.9798 22.1918ZM4.33302 18.325C3.8766 18.325 3.51981 18.2189 3.26267 18.0068C3.00552 17.7946 2.87695 17.5118 2.87695 17.1582C2.87695 16.8368 2.97017 16.525 3.1566 16.2228C3.34302 15.9207 3.57445 15.625 3.85088 15.3357C4.13374 15.0464 4.4166 14.7571 4.69945 14.4678C4.9116 14.2493 5.07552 13.9632 5.19124 13.6096C5.31338 13.2561 5.40017 12.88 5.4516 12.4814C5.50945 12.0828 5.55124 11.6971 5.57695 11.3243C5.58338 10.7586 5.61231 10.2218 5.66374 9.71391C5.7216 9.19963 5.80517 8.71427 5.91445 8.25784L15.972 18.325H4.33302ZM11.9798 1.89355C12.687 1.89355 13.2816 2.11213 13.7637 2.54927C14.2459 2.98641 14.5802 3.51998 14.7666 4.14998C15.6216 4.45855 16.3095 4.9407 16.8302 5.59641C17.3509 6.25213 17.7334 7.06213 17.9777 8.02641C18.222 8.9907 18.357 10.09 18.3827 11.3243C18.402 11.6971 18.4405 12.0828 18.4984 12.4814C18.5562 12.88 18.643 13.2561 18.7587 13.6096C18.8809 13.9632 19.048 14.2493 19.2602 14.4678C19.5366 14.7571 19.813 15.0464 20.0895 15.3357C20.3723 15.625 20.607 15.9207 20.7934 16.2228C20.9798 16.525 21.073 16.8368 21.073 17.1582C21.073 17.4411 20.9927 17.6757 20.832 17.8621L7.86231 4.8732C8.05517 4.71891 8.26088 4.5807 8.47945 4.45855C8.70445 4.33641 8.94231 4.23355 9.19302 4.14998C9.37302 3.51998 9.7041 2.98641 10.1862 2.54927C10.6684 2.11213 11.2662 1.89355 11.9798 1.89355ZM3.0891 3.85105C2.94767 3.70963 2.87695 3.53605 2.87695 3.33034C2.87695 3.1182 2.94767 2.94141 3.0891 2.79998C3.23695 2.65855 3.41374 2.58784 3.61945 2.58784C3.8316 2.58784 4.00838 2.65855 4.14981 2.79998L21.4684 20.1089C21.6098 20.2503 21.6805 20.4239 21.6805 20.6296C21.6805 20.8353 21.6098 21.0121 21.4684 21.16C21.327 21.3014 21.1502 21.3721 20.938 21.3721C20.7323 21.3721 20.5587 21.3014 20.4173 21.16L3.0891 3.85105Z" fill="black"/>
</svg>
