<svg width="24" height="24" viewBox="0 0 24 24" fill="none" xmlns="http://www.w3.org/2000/svg">
<path d="M12.1089 8.13936C12.6895 8.24218 13.1734 8.39339 13.5605 8.59299C13.9476 8.78654 14.2833 9.02847 14.5676 9.3188C15.3055 10.0507 15.7954 10.8581 16.0373 11.7412C16.2793 12.6182 16.2762 13.4952 16.0283 14.3722C15.7863 15.2492 15.3025 16.0507 14.5766 16.7765L11.4738 19.8884C10.7541 20.6081 9.95568 21.089 9.07866 21.3309C8.20164 21.5789 7.3216 21.5819 6.43854 21.34C5.56152 21.098 4.75406 20.6081 4.01616 19.8702C3.28431 19.1384 2.79741 18.3339 2.55548 17.4569C2.31354 16.5738 2.31354 15.6938 2.55548 14.8168C2.80346 13.9398 3.28733 13.1384 4.00709 12.4125L6.67443 9.75428C6.62604 10.0507 6.61697 10.3621 6.64721 10.6888C6.6835 11.0093 6.76515 11.3117 6.89217 11.596L5.11394 13.3742C4.58773 13.9005 4.23693 14.4811 4.06152 15.1162C3.88612 15.7513 3.88612 16.3894 4.06152 17.0305C4.23693 17.6656 4.58773 18.2492 5.11394 18.7815C5.64015 19.3077 6.2208 19.6555 6.85588 19.8248C7.49701 20.0002 8.13511 20.0002 8.77019 19.8248C9.40527 19.6494 9.98592 19.2986 10.5121 18.7724L13.4789 15.8148C14.0051 15.2886 14.3529 14.7079 14.5222 14.0728C14.6976 13.4377 14.6976 12.8027 14.5222 12.1676C14.3468 11.5265 13.996 10.9398 13.4698 10.4075C13.1734 10.1111 12.8196 9.87525 12.4083 9.69985C12.0031 9.52444 11.501 9.41255 10.9022 9.36416L12.1089 8.13936ZM11.8821 15.6152C11.3014 15.5123 10.8176 15.3642 10.4305 15.1706C10.0434 14.971 9.70769 14.7261 9.42342 14.4357C8.68552 13.7039 8.1956 12.8994 7.95366 12.0224C7.71173 11.1394 7.71173 10.2593 7.95366 9.38231C8.20164 8.50529 8.68854 7.70388 9.41435 6.97807L12.5081 3.87525C13.2339 3.14944 14.0353 2.66557 14.9123 2.42364C15.7893 2.17565 16.6664 2.17263 17.5434 2.41456C18.4264 2.6565 19.2369 3.14642 19.9748 3.88432C20.7067 4.61618 21.1936 5.42364 21.4355 6.3067C21.6775 7.18372 21.6744 8.06073 21.4264 8.93775C21.1845 9.81476 20.7037 10.6162 19.9839 11.342L17.3166 14.0002C17.365 13.7039 17.371 13.3954 17.3347 13.0748C17.3045 12.7543 17.2258 12.4488 17.0988 12.1585L18.877 10.3803C19.4033 9.85408 19.7541 9.27344 19.9295 8.63835C20.1049 8.00327 20.1049 7.36819 19.9295 6.73311C19.7541 6.09198 19.4033 5.50831 18.877 4.9821C18.3448 4.44985 17.7611 4.09904 17.126 3.92968C16.491 3.75428 15.8559 3.75428 15.2208 3.92968C14.5857 4.10509 14.002 4.45589 13.4698 4.9821L10.5121 7.93977C9.98592 8.46598 9.63511 9.04662 9.45971 9.6817C9.28431 10.3168 9.28431 10.9549 9.45971 11.596C9.63511 12.2311 9.98894 12.8148 10.5212 13.347C10.8176 13.6434 11.1684 13.8793 11.5736 14.0547C11.9849 14.2301 12.49 14.342 13.0887 14.3904L11.8821 15.6152Z" fill="#333D48"/>
</svg>
