<svg width="24" height="24" viewBox="0 0 24 24" fill="none" xmlns="http://www.w3.org/2000/svg">
<path d="M15.8063 19.9656C15.3938 19.9656 15.0156 19.8625 14.6719 19.6563C14.3344 19.4563 14.0625 19.1844 13.8563 18.8406C13.65 18.5031 13.5469 18.1281 13.5469 17.7156C13.5469 17.3031 13.65 16.9281 13.8563 16.5906C14.0625 16.2469 14.3344 15.975 14.6719 15.775C15.0156 15.5687 15.3938 15.4656 15.8063 15.4656C16.2188 15.4656 16.5938 15.5687 16.9313 15.775C17.275 15.975 17.5469 16.2469 17.7469 16.5906C17.9531 16.9281 18.0563 17.3031 18.0563 17.7156C18.0563 18.1281 17.9531 18.5031 17.7469 18.8406C17.5469 19.1844 17.275 19.4563 16.9313 19.6563C16.5938 19.8625 16.2188 19.9656 15.8063 19.9656ZM15.8063 18.8125C16.1125 18.8125 16.3719 18.7063 16.5844 18.4938C16.7969 18.2813 16.9031 18.0219 16.9031 17.7156C16.9031 17.4031 16.7969 17.1438 16.5844 16.9375C16.3719 16.725 16.1125 16.6188 15.8063 16.6188C15.5 16.6188 15.2406 16.725 15.0281 16.9375C14.8156 17.1438 14.7094 17.4031 14.7094 17.7156C14.7094 18.0219 14.8156 18.2813 15.0281 18.4938C15.2406 18.7063 15.5 18.8125 15.8063 18.8125ZM14.3156 16.9563V18.4656H3.75C3.54375 18.4656 3.36563 18.3938 3.21563 18.25C3.07188 18.1 3 17.9219 3 17.7156C3 17.5031 3.07188 17.325 3.21563 17.1813C3.36563 17.0313 3.54375 16.9563 3.75 16.9563H14.3156ZM21.1688 16.9563C21.3625 16.9563 21.5313 17.0313 21.675 17.1813C21.8188 17.325 21.8906 17.5031 21.8906 17.7156C21.8906 17.9219 21.8188 18.1 21.675 18.25C21.5313 18.3938 21.3625 18.4656 21.1688 18.4656H17.4375V16.9563H21.1688ZM9.1875 14.2469C8.775 14.2469 8.39688 14.1438 8.05313 13.9375C7.71563 13.7312 7.44375 13.4594 7.2375 13.1219C7.0375 12.7781 6.9375 12.4 6.9375 11.9875C6.9375 11.575 7.0375 11.2 7.2375 10.8625C7.44375 10.5188 7.71563 10.2469 8.05313 10.0469C8.39688 9.84063 8.775 9.7375 9.1875 9.7375C9.6 9.7375 9.975 9.84063 10.3125 10.0469C10.6562 10.2469 10.9281 10.5188 11.1281 10.8625C11.3344 11.2 11.4375 11.575 11.4375 11.9875C11.4375 12.4 11.3344 12.7781 11.1281 13.1219C10.9281 13.4594 10.6562 13.7312 10.3125 13.9375C9.975 14.1438 9.6 14.2469 9.1875 14.2469ZM9.1875 13.0844C9.5 13.0844 9.75938 12.9781 9.96563 12.7656C10.1781 12.5531 10.2844 12.2938 10.2844 11.9875C10.2844 11.675 10.1781 11.4156 9.96563 11.2094C9.75938 10.9969 9.5 10.8906 9.1875 10.8906C8.88125 10.8906 8.62188 10.9969 8.40938 11.2094C8.19688 11.4156 8.09063 11.675 8.09063 11.9875C8.09063 12.2938 8.19688 12.5531 8.40938 12.7656C8.62188 12.9781 8.88125 13.0844 9.1875 13.0844ZM3.7125 11.2281H7.575V12.7375H3.7125C3.525 12.7375 3.35938 12.6656 3.21563 12.5219C3.07188 12.3781 3 12.2 3 11.9875C3 11.775 3.07188 11.5969 3.21563 11.4531C3.35938 11.3031 3.525 11.2281 3.7125 11.2281ZM21.1313 11.2281C21.3438 11.2281 21.5219 11.3031 21.6656 11.4531C21.8156 11.5969 21.8906 11.775 21.8906 11.9875C21.8906 12.2 21.8156 12.3781 21.6656 12.5219C21.5219 12.6656 21.3438 12.7375 21.1313 12.7375H10.6781V11.2281H21.1313ZM15.8063 8.50938C15.3938 8.50938 15.0156 8.40938 14.6719 8.20938C14.3344 8.00313 14.0625 7.73125 13.8563 7.39375C13.65 7.05 13.5469 6.67188 13.5469 6.25938C13.5469 5.84688 13.65 5.47188 13.8563 5.13438C14.0625 4.79063 14.3344 4.51563 14.6719 4.30938C15.0156 4.10313 15.3938 4 15.8063 4C16.2188 4 16.5938 4.10313 16.9313 4.30938C17.275 4.51563 17.5469 4.79063 17.7469 5.13438C17.9531 5.47188 18.0563 5.84688 18.0563 6.25938C18.0563 6.67188 17.9531 7.05 17.7469 7.39375C17.5469 7.73125 17.275 8.00313 16.9313 8.20938C16.5938 8.40938 16.2188 8.50938 15.8063 8.50938ZM15.8063 7.35625C16.1125 7.35625 16.3719 7.25 16.5844 7.0375C16.7969 6.81875 16.9031 6.55625 16.9031 6.25C16.9031 5.94375 16.7969 5.68438 16.5844 5.47188C16.3719 5.25938 16.1125 5.15313 15.8063 5.15313C15.5 5.15313 15.2406 5.25938 15.0281 5.47188C14.8156 5.68438 14.7094 5.94375 14.7094 6.25C14.7094 6.55625 14.8156 6.81875 15.0281 7.0375C15.2406 7.25 15.5 7.35625 15.8063 7.35625ZM14.3625 5.50938V7.01875H3.75C3.54375 7.01875 3.36563 6.94688 3.21563 6.80313C3.07188 6.65313 3 6.47188 3 6.25938C3 6.05313 3.07188 5.87812 3.21563 5.73438C3.36563 5.58438 3.54375 5.50938 3.75 5.50938H14.3625ZM21.1688 5.50938C21.3625 5.50938 21.5313 5.58438 21.675 5.73438C21.8188 5.87812 21.8906 6.05313 21.8906 6.25938C21.8906 6.47188 21.8188 6.65313 21.675 6.80313C21.5313 6.94688 21.3625 7.01875 21.1688 7.01875H17.3063V5.50938H21.1688Z" fill="white"/>
</svg>
