<svg width="16" height="16" viewBox="0 0 16 16" fill="none" xmlns="http://www.w3.org/2000/svg">
<path d="M11.666 1.64957C12.7808 2.29321 13.7066 3.21895 14.3502 4.33376C14.9938 5.44857 15.3327 6.71316 15.3327 8.00043C15.3327 9.28769 14.9938 10.5523 14.3502 11.6671C13.7065 12.7819 12.7808 13.7076 11.6659 14.3512C10.5511 14.9949 9.28651 15.3337 7.99923 15.3337C6.71196 15.3336 5.44736 14.9948 4.33256 14.3511C3.21776 13.7075 2.29203 12.7817 1.64841 11.6669C1.0048 10.5521 0.665983 9.28746 0.666016 8.00019L0.669682 7.76259C0.710751 6.49613 1.07928 5.26192 1.73935 4.18028C2.39942 3.09865 3.3285 2.2065 4.436 1.59082C5.54351 0.975141 6.79166 0.656938 8.05875 0.667234C9.32585 0.677531 10.5687 1.01598 11.666 1.64957ZM7.99935 10.2002C7.80486 10.2002 7.61833 10.2774 7.4808 10.415C7.34328 10.5525 7.26602 10.739 7.26602 10.9335V10.9408C7.26602 11.1353 7.34328 11.3219 7.4808 11.4594C7.61833 11.5969 7.80486 11.6742 7.99935 11.6742C8.19384 11.6742 8.38037 11.5969 8.51789 11.4594C8.65542 11.3219 8.73268 11.1353 8.73268 10.9408V10.9335C8.73268 10.739 8.65542 10.5525 8.51789 10.415C8.38037 10.2774 8.19384 10.2002 7.99935 10.2002ZM7.99935 5.06688C7.80486 5.06688 7.61833 5.14414 7.4808 5.28167C7.34328 5.41919 7.26602 5.60572 7.26602 5.80021V8.73352C7.26602 8.92801 7.34328 9.11454 7.4808 9.25206C7.61833 9.38959 7.80486 9.46685 7.99935 9.46685C8.19384 9.46685 8.38037 9.38959 8.51789 9.25206C8.65542 9.11454 8.73268 8.92801 8.73268 8.73352V5.80021C8.73268 5.60572 8.65542 5.41919 8.51789 5.28167C8.38037 5.14414 8.19384 5.06688 7.99935 5.06688Z" fill="#B1BCC8"/>
</svg>
