<svg width="20" height="20" viewBox="0 0 20 20" fill="none" xmlns="http://www.w3.org/2000/svg">
<path d="M16.9696 17.5805C19.3865 15.3752 20.4606 11.7 19.8162 8.18213H10.2024V12.0675H15.6806C15.4658 13.3276 14.7138 14.3776 13.6397 15.0602L16.9696 17.5805Z" fill="#4285F4"/>
<path d="M1.07202 14.4824C1.16003 14.6518 1.25282 14.8186 1.3504 14.9828C1.44804 15.1472 1.55032 15.3086 1.65724 15.4672C1.76422 15.6258 1.87562 15.7814 1.99157 15.9338C2.10752 16.0863 2.22773 16.2354 2.35235 16.3812C2.47689 16.527 2.60555 16.6693 2.73838 16.808C2.87114 16.9467 3.00787 17.0816 3.14847 17.2127C3.28908 17.3438 3.43335 17.471 3.58127 17.5942C3.7292 17.7173 3.88057 17.8363 4.03544 17.9511C4.19025 18.066 4.34826 18.1764 4.50949 18.2824C4.67072 18.3885 4.83486 18.49 5.00198 18.587C5.16904 18.684 5.33878 18.7763 5.51122 18.864C5.68365 18.9515 5.85848 19.0344 6.03569 19.1123C6.21291 19.1902 6.39221 19.2632 6.57369 19.3312C6.75509 19.3993 6.93835 19.4623 7.12341 19.5202C7.30847 19.5781 7.4951 19.6309 7.68322 19.6785C7.87135 19.7261 8.06067 19.7684 8.25125 19.8056C8.44184 19.8427 8.63333 19.8746 8.82578 19.9012C9.01817 19.9277 9.21122 19.9489 9.40487 19.9648C9.59852 19.9806 9.79247 19.9912 9.98672 19.9963C10.181 20.0015 10.3752 20.0013 10.5695 19.9957C10.7637 19.9902 10.9576 19.9792 11.1512 19.9629C11.3448 19.9467 11.5378 19.925 11.7302 19.8981C11.9226 19.8711 12.114 19.8389 12.3045 19.8013C12.495 19.7638 12.6842 19.721 12.8722 19.6731C13.0603 19.6251 13.2467 19.5719 13.4317 19.5136C13.6166 19.4553 13.7998 19.3919 13.9811 19.3235C14.1623 19.2551 14.3415 19.1817 14.5186 19.1034C14.6956 19.0251 14.8702 18.942 15.0424 18.8539C15.2147 18.766 15.3842 18.6733 15.5511 18.576C15.718 18.4786 15.8819 18.3767 16.0429 18.2704C16.2039 18.164 16.3617 18.0532 16.5163 17.9381C16.6708 17.823 16.822 17.7036 16.9696 17.5802L13.6397 15.06C10.7932 16.8976 6.06692 16.2151 4.45562 11.9097L1.07202 14.4824Z" fill="#34A853"/>
<path d="M4.45565 11.9095C4.02599 10.5968 4.02599 9.38925 4.45565 8.07663L1.07205 5.50391C-0.163224 7.91917 -0.539171 11.3319 1.07205 14.4822L4.45565 11.9095Z" fill="#FBBC02"/>
<path d="M4.45562 8.07667C5.63726 4.45389 10.6858 2.35372 14.0694 5.45143L17.0233 2.61621C12.8341 -1.32158 4.67049 -1.16411 1.07202 5.50395L4.45562 8.07667Z" fill="#EA4335"/>
</svg>
