<svg width="20" height="20" viewBox="0 0 20 20" fill="none" xmlns="http://www.w3.org/2000/svg">
<g clip-path="url(#clip0_2613_5629)">
<path d="M5.83366 14.9993V9.99935C5.83366 8.89428 6.27264 7.83447 7.05405 7.05307C7.83545 6.27167 8.89526 5.83268 10.0003 5.83268C11.1054 5.83268 12.1652 6.27167 12.9466 7.05307C13.728 7.83447 14.167 8.89428 14.167 9.99935V14.9993M5.83366 14.9993H14.167M5.83366 14.9993C5.39163 14.9993 4.96771 15.1749 4.65515 15.4875C4.34259 15.8001 4.16699 16.224 4.16699 16.666V17.4993C4.16699 17.7204 4.25479 17.9323 4.41107 18.0886C4.56735 18.2449 4.77931 18.3327 5.00032 18.3327H15.0003C15.2213 18.3327 15.4333 18.2449 15.5896 18.0886C15.7459 17.9323 15.8337 17.7204 15.8337 17.4993V16.666C15.8337 16.224 15.6581 15.8001 15.3455 15.4875C15.0329 15.1749 14.609 14.9993 14.167 14.9993M17.5003 9.99935H18.3337M15.417 3.74935L15.0003 4.16602M1.66699 9.99935H2.50033M10.0003 1.66602V2.49935M4.10783 4.10685L4.69699 4.69602M10.0003 9.99935V14.9993" stroke="white" stroke-width="1.66667" stroke-linecap="round" stroke-linejoin="round"/>
</g>
<defs>
<clipPath id="clip0_2613_5629">
<rect width="20" height="20" fill="white"/>
</clipPath>
</defs>
</svg>
