<svg width="24" height="24" viewBox="0 0 24 24" fill="none" xmlns="http://www.w3.org/2000/svg">
<path d="M4.63911 19.6107C3.79619 19.6107 3.16266 19.4013 2.73851 18.9825C2.31974 18.5691 2.11035 17.9463 2.11035 17.1142V8.68228C2.11035 7.85547 2.31974 7.23536 2.73851 6.82195C3.16266 6.40318 3.79619 6.19379 4.63911 6.19379H6.886C7.20277 6.19379 7.43631 6.15621 7.58664 6.08104C7.73697 6.00051 7.90072 5.86092 8.0779 5.66227L8.72217 4.93747C8.92619 4.71734 9.14631 4.54822 9.38255 4.4301C9.62415 4.31199 9.95165 4.25293 10.3651 4.25293H13.5784C13.9918 4.25293 14.3193 4.31199 14.5609 4.4301C14.8025 4.54822 15.0226 4.71734 15.2212 4.93747L15.8655 5.66227C15.989 5.79649 16.0991 5.90387 16.1957 5.9844C16.2977 6.05957 16.4131 6.11326 16.542 6.14547C16.6708 6.17769 16.8426 6.19379 17.0574 6.19379H19.3607C20.1982 6.19379 20.8291 6.40318 21.2532 6.82195C21.6774 7.23536 21.8894 7.85547 21.8894 8.68228V17.1142C21.8894 17.9463 21.6774 18.5691 21.2532 18.9825C20.8291 19.4013 20.1982 19.6107 19.3607 19.6107H4.63911ZM11.9999 17.235C12.6066 17.235 13.1757 17.1222 13.7072 16.8967C14.2387 16.6712 14.7058 16.3571 15.1085 15.9545C15.5112 15.5518 15.8252 15.0847 16.0507 14.5532C16.2762 14.0217 16.389 13.4472 16.389 12.8298C16.389 12.0137 16.193 11.2728 15.8011 10.607C15.4092 9.94129 14.8803 9.41246 14.2146 9.02052C13.5488 8.62859 12.8106 8.43263 11.9999 8.43263C11.3878 8.43263 10.816 8.54538 10.2845 8.77087C9.753 8.99637 9.2859 9.31045 8.88324 9.71311C8.48594 10.1158 8.17186 10.5829 7.94099 11.1144C7.7155 11.6459 7.60275 12.2177 7.60275 12.8298C7.60275 13.4472 7.7155 14.0217 7.94099 14.5532C8.17186 15.0847 8.48594 15.5518 8.88324 15.9545C9.2859 16.3571 9.753 16.6712 10.2845 16.8967C10.816 17.1222 11.3878 17.235 11.9999 17.235ZM11.9999 16.0109C11.4147 16.0109 10.8805 15.8686 10.3973 15.584C9.91944 15.2995 9.53556 14.9183 9.24564 14.4404C8.96109 13.9572 8.81881 13.4204 8.81881 12.8298C8.81881 12.2446 8.96109 11.713 9.24564 11.2352C9.53556 10.752 9.91944 10.3681 10.3973 10.0836C10.8805 9.79365 11.4147 9.64869 11.9999 9.64869C12.5851 9.64869 13.1166 9.79365 13.5945 10.0836C14.0777 10.3681 14.4615 10.752 14.7461 11.2352C15.0306 11.713 15.1729 12.2446 15.1729 12.8298C15.1729 13.4204 15.0306 13.9572 14.7461 14.4404C14.4615 14.9183 14.0777 15.2995 13.5945 15.584C13.1166 15.8686 12.5851 16.0109 11.9999 16.0109ZM16.9286 9.86613C16.9286 10.1561 17.0306 10.403 17.2346 10.607C17.444 10.8057 17.6909 10.9023 17.9755 10.897C18.2493 10.897 18.4882 10.7976 18.6922 10.599C18.9016 10.4003 19.0063 10.1561 19.0063 9.86613C19.0063 9.59231 18.9016 9.3534 18.6922 9.14938C18.4882 8.93999 18.2493 8.8353 17.9755 8.8353C17.6909 8.8353 17.444 8.93999 17.2346 9.14938C17.0306 9.3534 16.9286 9.59231 16.9286 9.86613Z" fill="#B1BCC8"/>
</svg>
