<svg width="26" height="26" viewBox="0 0 26 26" fill="none" xmlns="http://www.w3.org/2000/svg">
<path d="M24.7114 17.4738C24.5163 15.8195 23.0305 15.1087 22.1 14.8502C21.1545 14.5788 20.9594 13.7 21.0194 13.015L20.9444 9.87442C20.9444 8.69833 20.5542 7.97458 19.7437 7.06989C19.0834 6.34614 18.0929 5.67409 17.2524 5.10543C16.577 4.64016 15.6916 4.14904 15.4965 3.3736C15.3914 2.92125 15.3464 2.50768 15.1063 2.09411C14.656 1.34451 14.0107 0.840469 13.0352 0.75H12.5099C11.5344 0.827545 10.829 1.33159 10.3787 2.09411C10.1236 2.50768 10.0936 2.92125 9.98853 3.3736C9.79342 4.14904 8.92296 4.65308 8.23259 5.10543C7.39214 5.67409 6.40161 6.34614 5.74126 7.06989C4.91582 7.97458 4.52561 8.69833 4.54061 9.87442L4.46557 13.015C4.52561 13.7 4.31549 14.5788 3.385 14.8502C2.4545 15.1087 0.968706 15.8324 0.773602 17.4738C0.653538 18.5724 0.983714 19.6838 1.94423 20.4851C3.17489 21.5061 5.0809 21.6224 6.68676 21.5707C8.23259 21.5191 9.77841 21.5449 11.3242 21.5449H14.1758C15.7216 21.5449 17.2674 21.5191 18.8132 21.5707C20.4341 21.6224 22.3401 21.5061 23.5558 20.4851C24.5163 19.6838 24.8465 18.5724 24.7264 17.4738H24.7114Z" stroke="#333D48" stroke-width="1.5" stroke-miterlimit="10"/>
<path d="M16.5769 21.5742C16.5769 21.5742 15.7814 24.9603 12.6298 24.7406C12.6298 24.7406 9.79324 24.8569 8.74268 21.5742H16.5769Z" stroke="#333D48" stroke-width="1.5" stroke-miterlimit="10"/>
</svg>
