<svg width="24" height="24" viewBox="0 0 24 24" fill="none" xmlns="http://www.w3.org/2000/svg">
<path d="M11.8922 21.7845C10.528 21.7845 9.24784 21.5259 8.05172 21.0086C6.8556 20.4978 5.80496 19.7899 4.89978 18.8847C3.99461 17.9795 3.28341 16.9289 2.76616 15.7328C2.25539 14.5366 2 13.2565 2 11.8922C2 10.528 2.25539 9.24784 2.76616 8.05172C3.28341 6.8556 3.99461 5.80496 4.89978 4.89978C5.80496 3.98815 6.8556 3.27694 8.05172 2.76616C9.24784 2.25539 10.528 2 11.8922 2C13.2565 2 14.5366 2.25539 15.7328 2.76616C16.9289 3.27694 17.9795 3.98815 18.8847 4.89978C19.7899 5.80496 20.4978 6.8556 21.0086 8.05172C21.5259 9.24784 21.7845 10.528 21.7845 11.8922C21.7845 13.2565 21.5259 14.5366 21.0086 15.7328C20.4978 16.9289 19.7899 17.9795 18.8847 18.8847C17.9795 19.7899 16.9289 20.4978 15.7328 21.0086C14.5366 21.5259 13.2565 21.7845 11.8922 21.7845ZM11.8922 20.1358C13.0302 20.1358 14.097 19.9224 15.0927 19.4957C16.0884 19.069 16.9644 18.4774 17.7209 17.7209C18.4774 16.9644 19.069 16.0884 19.4957 15.0927C19.9224 14.097 20.1358 13.0302 20.1358 11.8922C20.1358 10.7543 19.9224 9.6875 19.4957 8.69181C19.069 7.68965 18.4774 6.81358 17.7209 6.06358C16.9644 5.30711 16.0884 4.71552 15.0927 4.28879C14.097 3.86207 13.0302 3.64871 11.8922 3.64871C10.7543 3.64871 9.6875 3.86207 8.69181 4.28879C7.69612 4.71552 6.82004 5.30711 6.06358 6.06358C5.30711 6.81358 4.71552 7.68965 4.28879 8.69181C3.86207 9.6875 3.64871 10.7543 3.64871 11.8922C3.64871 13.0302 3.86207 14.097 4.28879 15.0927C4.71552 16.0884 5.30711 16.9644 6.06358 17.7209C6.82004 18.4774 7.69612 19.069 8.69181 19.4957C9.6875 19.9224 10.7543 20.1358 11.8922 20.1358ZM10.195 17.3136C9.99461 17.3136 9.82651 17.2489 9.69073 17.1196C9.55496 16.9903 9.48707 16.8287 9.48707 16.6347C9.48707 16.4407 9.55496 16.2791 9.69073 16.1498C9.82651 16.0205 9.99461 15.9558 10.195 15.9558H11.3976V11.5043H10.3599C10.1595 11.5043 9.99138 11.4397 9.8556 11.3103C9.71983 11.181 9.65194 11.0194 9.65194 10.8254C9.65194 10.6315 9.71983 10.4698 9.8556 10.3405C9.99138 10.2112 10.1595 10.1466 10.3599 10.1466H12.1832C12.4289 10.1466 12.6164 10.2274 12.7457 10.389C12.875 10.5442 12.9397 10.7543 12.9397 11.0194V15.9558H14.1422C14.3427 15.9558 14.5108 16.0205 14.6466 16.1498C14.7823 16.2791 14.8502 16.4407 14.8502 16.6347C14.8502 16.8287 14.7823 16.9903 14.6466 17.1196C14.5108 17.2489 14.3427 17.3136 14.1422 17.3136H10.195ZM11.805 8.52694C11.4558 8.52694 11.1584 8.4041 10.9127 8.15841C10.667 7.91272 10.5442 7.6153 10.5442 7.26616C10.5442 6.91056 10.667 6.60991 10.9127 6.36422C11.1584 6.11853 11.4558 5.99569 11.805 5.99569C12.1606 5.99569 12.458 6.11853 12.6972 6.36422C12.9429 6.60991 13.0657 6.91056 13.0657 7.26616C13.0657 7.6153 12.9429 7.91272 12.6972 8.15841C12.458 8.4041 12.1606 8.52694 11.805 8.52694Z" fill="white"/>
</svg>
