<svg width="24" height="24" viewBox="0 0 24 24" fill="none" xmlns="http://www.w3.org/2000/svg">
<path d="M4.35256 18.325C3.89613 18.325 3.53934 18.2189 3.2822 18.0068C3.02506 17.7946 2.89648 17.5118 2.89648 17.1582C2.89648 16.8368 2.9897 16.525 3.17613 16.2228C3.36256 15.9207 3.59398 15.625 3.87041 15.3357C4.15327 15.0464 4.43291 14.7571 4.70934 14.4678C4.92148 14.2493 5.08541 13.9632 5.20113 13.6096C5.32327 13.2561 5.41327 12.88 5.47113 12.4814C5.52898 12.0828 5.57077 11.6971 5.59648 11.3243C5.61577 10.09 5.74756 8.9907 5.99184 8.02641C6.23613 7.06213 6.61863 6.25213 7.13934 5.59641C7.66648 4.9407 8.35756 4.45855 9.21256 4.14998C9.39256 3.51998 9.72363 2.98641 10.2058 2.54927C10.6879 2.11213 11.2826 1.89355 11.9897 1.89355C12.7033 1.89355 13.3011 2.11213 13.7833 2.54927C14.2654 2.98641 14.5965 3.51998 14.7765 4.14998C15.6315 4.45855 16.3193 4.9407 16.8401 5.59641C17.3608 6.25213 17.7433 7.06213 17.9876 8.02641C18.2383 8.9907 18.3733 10.09 18.3926 11.3243C18.4183 11.6971 18.4601 12.0828 18.5179 12.4814C18.5758 12.88 18.6626 13.2561 18.7783 13.6096C18.9004 13.9632 19.0676 14.2493 19.2797 14.4678C19.5561 14.7571 19.8326 15.0464 20.109 15.3357C20.3918 15.625 20.6265 15.9207 20.8129 16.2228C20.9993 16.525 21.0926 16.8368 21.0926 17.1582C21.0926 17.5118 20.964 17.7946 20.7068 18.0068C20.4497 18.2189 20.0929 18.325 19.6365 18.325H4.35256ZM11.9897 22.1918C11.4497 22.1918 10.9643 22.0728 10.5336 21.835C10.1029 21.5971 9.75577 21.2853 9.4922 20.8996C9.22863 20.5139 9.07756 20.0961 9.03898 19.6461H14.9501C14.9051 20.0961 14.7508 20.5139 14.4872 20.8996C14.2301 21.2853 13.8861 21.5971 13.4554 21.835C13.0247 22.0728 12.5361 22.1918 11.9897 22.1918Z" fill="black"/>
</svg>
