<svg width="24" height="24" viewBox="0 0 24 24" fill="none" xmlns="http://www.w3.org/2000/svg">
<path d="M12.0002 21.8899C10.6359 21.8899 9.35575 21.6313 8.15963 21.1141C6.96351 20.6033 5.91287 19.8953 5.00769 18.9902C4.10252 18.0785 3.39132 17.0279 2.87407 15.8382C2.3633 14.6421 2.10791 13.3619 2.10791 11.9977C2.10791 10.6335 2.3633 9.35331 2.87407 8.15719C3.39132 6.96107 4.10252 5.91043 5.00769 5.00525C5.91287 4.10008 6.96351 3.39211 8.15963 2.88133C9.35575 2.36409 10.6359 2.10547 12.0002 2.10547C13.3644 2.10547 14.6445 2.36409 15.8407 2.88133C17.0368 3.39211 18.0874 4.10008 18.9926 5.00525C19.8978 5.91043 20.6058 6.96107 21.1165 8.15719C21.6338 9.35331 21.8924 10.6335 21.8924 11.9977C21.8924 13.3619 21.6338 14.6421 21.1165 15.8382C20.6058 17.0279 19.8978 18.0785 18.9926 18.9902C18.0874 19.8953 17.0368 20.6033 15.8407 21.1141C14.6445 21.6313 13.3644 21.8899 12.0002 21.8899ZM8.74153 16.071C8.97429 16.071 9.17149 15.9934 9.33313 15.8382L12.0098 13.1421L14.6963 15.8382C14.845 15.9934 15.0357 16.071 15.2685 16.071C15.4948 16.071 15.6855 15.9934 15.8407 15.8382C15.9958 15.6766 16.0734 15.4859 16.0734 15.266C16.0734 15.0268 15.9958 14.8361 15.8407 14.6938L13.1445 12.0074L15.8504 9.31129C16.0055 9.14965 16.0831 8.95892 16.0831 8.73909C16.0831 8.51926 16.0055 8.33176 15.8504 8.17659C15.6952 8.02142 15.5077 7.94383 15.2879 7.94383C15.0745 7.94383 14.8902 8.02142 14.7351 8.17659L12.0098 10.8824L9.30403 8.18629C9.14239 8.03758 8.95489 7.96323 8.74153 7.96323C8.5217 7.96323 8.3342 8.04081 8.17903 8.19599C8.02386 8.34469 7.94627 8.53219 7.94627 8.75849C7.94627 8.97185 8.02386 9.15935 8.17903 9.32099L10.8752 12.0074L8.17903 14.7035C8.02386 14.8587 7.94627 15.0462 7.94627 15.266C7.94627 15.4859 8.02386 15.6766 8.17903 15.8382C8.3342 15.9934 8.5217 16.071 8.74153 16.071Z" fill="#F64C4F"/>
</svg>
