<svg width="24" height="24" viewBox="0 0 24 24" fill="none" xmlns="http://www.w3.org/2000/svg">
<path d="M11.2082 18.3095C10.6259 18.3095 10.2164 18.2256 9.97954 18.0579C9.74763 17.895 9.63168 17.6508 9.63168 17.3251C9.63168 16.8465 9.77477 16.3457 10.061 15.8227C10.3471 15.2947 10.7616 14.8013 11.3044 14.3424C11.8471 13.8786 12.5009 13.5036 13.2657 13.2174C14.0355 12.9263 14.899 12.7807 15.8562 12.7807C16.8184 12.7807 17.6818 12.9263 18.4466 13.2174C19.2164 13.5036 19.8702 13.8786 20.408 14.3424C20.9508 14.8013 21.3652 15.2947 21.6514 15.8227C21.9425 16.3457 22.0881 16.8465 22.0881 17.3251C22.0881 17.6508 21.9697 17.895 21.7328 18.0579C21.496 18.2256 21.0865 18.3095 20.5042 18.3095H11.2082ZM15.8636 11.4559C15.3307 11.4559 14.8397 11.3128 14.3907 11.0266C13.9417 10.7355 13.5815 10.3457 13.3101 9.85722C13.0388 9.36379 12.9031 8.81116 12.9031 8.19932C12.9031 7.59735 13.0388 7.05458 13.3101 6.57103C13.5865 6.08748 13.9491 5.70508 14.3981 5.42383C14.8471 5.14258 15.3356 5.00195 15.8636 5.00195C16.3915 5.00195 16.88 5.14011 17.329 5.41643C17.7781 5.69274 18.1383 6.07268 18.4096 6.55623C18.681 7.03485 18.8167 7.57761 18.8167 8.18452C18.8167 8.8013 18.681 9.35639 18.4096 9.84981C18.1383 10.3432 17.7781 10.7355 17.329 11.0266C16.88 11.3128 16.3915 11.4559 15.8636 11.4559ZM3.21474 18.3095C2.74599 18.3095 2.41046 18.2182 2.20816 18.0357C2.01079 17.858 1.91211 17.6015 1.91211 17.2659C1.91211 16.7577 2.03793 16.2396 2.28958 15.7117C2.54122 15.1788 2.90142 14.6903 3.37017 14.2462C3.84385 13.8021 4.41375 13.4444 5.07987 13.173C5.75093 12.8967 6.50339 12.7585 7.33727 12.7585C8.02806 12.7585 8.6399 12.8498 9.1728 13.0324C9.71063 13.21 10.1868 13.437 10.6013 13.7133C10.2016 14.0242 9.84879 14.3844 9.54287 14.7939C9.24188 15.1985 9.00504 15.6179 8.83234 16.0521C8.65964 16.4863 8.56836 16.9008 8.55849 17.2955C8.54862 17.6903 8.63991 18.0283 8.83234 18.3095H3.21474ZM7.33727 11.6261C6.87839 11.6261 6.45158 11.5003 6.05685 11.2487C5.66704 10.997 5.35372 10.6566 5.11688 10.2273C4.88004 9.79801 4.76162 9.31939 4.76162 8.79143C4.76162 8.26347 4.88004 7.78978 5.11688 7.37037C5.35866 6.95097 5.67444 6.62037 6.06425 6.3786C6.45898 6.13189 6.88333 6.00853 7.33727 6.00853C7.79615 6.00853 8.2205 6.12942 8.6103 6.3712C9.00504 6.60804 9.32083 6.93616 9.55767 7.35557C9.79451 7.77004 9.91293 8.24373 9.91293 8.77662C9.91293 9.30952 9.79451 9.79307 9.55767 10.2273C9.32083 10.6566 9.0075 10.997 8.6177 11.2487C8.2279 11.5003 7.80109 11.6261 7.33727 11.6261Z" fill="white"/>
</svg>
