<svg width="24" height="24" viewBox="0 0 24 24" fill="none" xmlns="http://www.w3.org/2000/svg">
<path d="M7 11.9492C7 11.8255 7.02279 11.7116 7.06836 11.6074C7.11393 11.4967 7.18229 11.3958 7.27344 11.3047L15.0176 3.72656C15.1934 3.55729 15.4049 3.47266 15.6523 3.47266C15.8216 3.47266 15.9714 3.51172 16.1016 3.58984C16.2383 3.66797 16.3457 3.77539 16.4238 3.91211C16.5085 4.04232 16.5508 4.19206 16.5508 4.36133C16.5508 4.60221 16.4629 4.8138 16.2871 4.99609L9.17773 11.9492L16.2871 18.9023C16.4629 19.0846 16.5508 19.2962 16.5508 19.5371C16.5508 19.7064 16.5085 19.8561 16.4238 19.9863C16.3457 20.123 16.2383 20.2305 16.1016 20.3086C15.9714 20.3867 15.8216 20.4258 15.6523 20.4258C15.4049 20.4258 15.1934 20.3379 15.0176 20.1621L7.27344 12.5938C7.18229 12.5026 7.11393 12.4049 7.06836 12.3008C7.02279 12.1901 7 12.0729 7 11.9492Z" fill="#333D48"/>
</svg>
