<svg width="24" height="24" viewBox="0 0 24 24" fill="none" xmlns="http://www.w3.org/2000/svg">
<path d="M12.0004 2C13.2288 2 14.3894 2.21013 15.4821 2.63039C16.5747 3.04418 17.5575 3.62608 18.4303 4.37608C19.3032 5.12608 20.0273 6.00539 20.6027 7.01401C21.1782 8.01616 21.5596 9.1056 21.7471 10.2823H23.1437C23.3765 10.2823 23.551 10.3308 23.6674 10.4278C23.7838 10.5183 23.8387 10.6412 23.8323 10.7963C23.8258 10.945 23.7612 11.1099 23.6383 11.2909L21.4659 14.375C21.3043 14.6013 21.12 14.7144 20.9131 14.7144C20.7062 14.708 20.5252 14.5948 20.37 14.375L18.1976 11.2812C18.0747 11.1067 18.0101 10.945 18.0036 10.7963C18.0036 10.6412 18.0618 10.5183 18.1782 10.4278C18.2946 10.3308 18.4659 10.2823 18.6922 10.2823H20.0596C19.8786 9.3319 19.5456 8.45582 19.0607 7.65409C18.5758 6.84591 17.9745 6.1444 17.2568 5.54957C16.5392 4.94828 15.7342 4.48276 14.842 4.15302C13.9497 3.81681 13.0025 3.64871 12.0004 3.64871C10.7913 3.64871 9.65662 3.8944 8.59628 4.38578C7.5424 4.87069 6.63723 5.53017 5.88076 6.36422C5.68033 6.58405 5.4799 6.70043 5.27947 6.71336C5.07904 6.71983 4.90124 6.66487 4.74607 6.54849C4.56503 6.41918 4.45188 6.23168 4.40663 5.98599C4.36137 5.7403 4.43895 5.50754 4.63938 5.28772C5.54456 4.27263 6.634 3.47091 7.9077 2.88254C9.18141 2.29418 10.5456 2 12.0004 2ZM12.0004 21.7845C10.7719 21.7845 9.61137 21.5744 8.51869 21.1541C7.42602 20.7338 6.44326 20.1487 5.57042 19.3987C4.69757 18.6487 3.97344 17.7726 3.39801 16.7705C2.82257 15.7683 2.44111 14.6789 2.25361 13.5022H0.857057C0.624298 13.5022 0.449729 13.4569 0.33335 13.3664C0.216971 13.2694 0.162014 13.1433 0.168479 12.9881C0.174945 12.833 0.2396 12.6681 0.362445 12.4935L2.53486 9.39978C2.6965 9.17996 2.88076 9.07004 3.08766 9.07004C3.29456 9.07004 3.47559 9.17996 3.63076 9.39978L5.80318 12.5032C5.92602 12.6778 5.98744 12.8427 5.98744 12.9978C5.99391 13.1466 5.93895 13.2694 5.82257 13.3664C5.70619 13.4569 5.53486 13.5022 5.30857 13.5022H3.94111C4.12214 14.4461 4.45512 15.3222 4.94003 16.1304C5.42494 16.9321 6.02624 17.6336 6.74391 18.2349C7.46158 18.8362 8.26654 19.3017 9.15878 19.6315C10.051 19.9677 10.9982 20.1358 12.0004 20.1358C13.2094 20.1358 14.3409 19.8901 15.3948 19.3987C16.4551 18.9138 17.3635 18.2511 18.12 17.4106C18.3204 17.1972 18.5208 17.0873 18.7213 17.0808C18.9217 17.0679 19.0995 17.1164 19.2547 17.2263C19.4357 17.3556 19.5489 17.5463 19.5941 17.7985C19.6394 18.0442 19.5618 18.2769 19.3614 18.4968C18.4562 19.5054 17.3668 20.3039 16.093 20.8922C14.8193 21.4871 13.4551 21.7845 12.0004 21.7845Z" fill="#93A2B3"/>
</svg>
