<svg width="32" height="32" viewBox="0 0 32 32" fill="none" xmlns="http://www.w3.org/2000/svg">
<path d="M26.18 19.6099C28.2345 19.6099 29.9 17.9444 29.9 15.8899C29.9 13.8354 28.2345 12.1699 26.18 12.1699C24.1255 12.1699 22.46 13.8354 22.46 15.8899C22.46 17.9444 24.1255 19.6099 26.18 19.6099Z" fill="#212121"/>
<path d="M11 10.9999L11.68 9.99984C12.93 9.99984 14.17 9.70984 15.29 9.16984L21.55 6.08984V25.7098L15.29 22.6298C14.17 22.0798 12.93 21.7898 11.68 21.7898L11 19.9999V10.9999ZM6.21598 29.0082H8.79002C9.46002 29.0082 10 28.4682 10 27.7982V19.8899H5.00598V27.7982C5.00598 28.4682 5.54598 29.0082 6.21598 29.0082Z" fill="#D3D3D3"/>
<path d="M24.07 3C22.38 3 21 4.37 21 6.07V25.72C21 27.41 22.37 28.79 24.07 28.79C25.76 28.79 27.14 27.42 27.14 25.72V6.07C27.13 4.37 25.76 3 24.07 3Z" fill="#F8312F"/>
<path d="M3.72662 10H12V21.78H3.72662C2.77081 21.78 2 21.03 2 20.11V11.68C2 10.75 2.77081 10 3.72662 10Z" fill="#CA0B4A"/>
</svg>
