<svg width="24" height="24" viewBox="0 0 24 24" fill="none" xmlns="http://www.w3.org/2000/svg">
<path d="M11.9998 21.8899C10.6356 21.8899 9.35539 21.6313 8.15927 21.1141C6.96315 20.6033 5.9125 19.8953 5.00733 18.9902C4.10216 18.0785 3.39095 17.0279 2.87371 15.8382C2.36293 14.6421 2.10754 13.3619 2.10754 11.9977C2.10754 10.6335 2.36293 9.35331 2.87371 8.15719C3.39095 6.96107 4.10216 5.91043 5.00733 5.00525C5.9125 4.10008 6.96315 3.39211 8.15927 2.88133C9.35539 2.36409 10.6356 2.10547 11.9998 2.10547C13.364 2.10547 14.6442 2.36409 15.8403 2.88133C17.0364 3.39211 18.0871 4.10008 18.9922 5.00525C19.8974 5.91043 20.6054 6.96107 21.1162 8.15719C21.6334 9.35331 21.892 10.6335 21.892 11.9977C21.892 13.3619 21.6334 14.6421 21.1162 15.8382C20.6054 17.0279 19.8974 18.0785 18.9922 18.9902C18.0871 19.8953 17.0364 20.6033 15.8403 21.1141C14.6442 21.6313 13.364 21.8899 11.9998 21.8899ZM10.9136 16.7305C11.0817 16.7305 11.2336 16.6917 11.3694 16.6141C11.5052 16.5365 11.6248 16.4201 11.7282 16.265L16.2864 9.07853C16.3446 8.98155 16.3996 8.8781 16.4513 8.76818C16.503 8.65827 16.5289 8.54836 16.5289 8.43844C16.5289 8.21215 16.4448 8.03435 16.2767 7.90504C16.1086 7.76926 15.9211 7.70137 15.7142 7.70137C15.4297 7.70137 15.197 7.85008 15.0159 8.14749L10.8748 14.8005L8.90603 12.2596C8.78319 12.0979 8.66358 11.988 8.5472 11.9298C8.43728 11.8716 8.31121 11.8425 8.16897 11.8425C7.94914 11.8425 7.76487 11.9234 7.61616 12.085C7.46746 12.2402 7.3931 12.4277 7.3931 12.6475C7.3931 12.7574 7.4125 12.8673 7.45129 12.9772C7.49655 13.0807 7.55474 13.1809 7.62586 13.2779L10.0601 16.265C10.1894 16.4331 10.322 16.5527 10.4578 16.6238C10.5935 16.6949 10.7455 16.7305 10.9136 16.7305Z" fill="#33D890"/>
</svg>
