<svg width="16" height="16" viewBox="0 0 16 16" fill="none" xmlns="http://www.w3.org/2000/svg">
<path d="M4.06769 10.2427C3.29452 10.2427 2.70616 10.0466 2.3026 9.65436C1.89904 9.26212 1.69727 8.6945 1.69727 7.95151V7.12554C1.69727 6.38254 1.89904 5.81492 2.3026 5.42268C2.70616 5.03044 3.29452 4.83432 4.06769 4.83432H5.28401V10.2427H4.06769ZM6.05906 10.2484V4.83432C6.5456 4.78152 7.0887 4.69289 7.68838 4.56843C8.29182 4.44397 8.89904 4.28556 9.51004 4.09321C10.1248 3.90086 10.6943 3.67645 11.2185 3.41999C11.2185 3.45393 11.2185 3.48599 11.2185 3.51616C11.2185 3.54634 11.2185 3.57839 11.2185 3.61234V11.4817C11.2185 11.5119 11.2185 11.542 11.2185 11.5722C11.2185 11.6024 11.2185 11.6307 11.2185 11.6571C10.7018 11.4044 10.1455 11.1837 9.54964 10.9952C8.95373 10.8028 8.35594 10.6444 7.75626 10.5199C7.15659 10.3955 6.59085 10.305 6.05906 10.2484ZM13.142 13.0374C12.9157 13.0374 12.7159 12.9884 12.5424 12.8904C12.3689 12.7961 12.2331 12.6622 12.135 12.4887C12.0407 12.3152 11.9936 12.1153 11.9936 11.889V3.15409C11.9936 2.9278 12.0407 2.72791 12.135 2.55442C12.2331 2.37716 12.3689 2.24138 12.5424 2.14709C12.7159 2.04903 12.9157 2 13.142 2C13.3721 2 13.5739 2.04903 13.7474 2.14709C13.9209 2.24138 14.0548 2.37716 14.149 2.55442C14.2471 2.72791 14.2961 2.9278 14.2961 3.15409V11.889C14.2961 12.1153 14.2471 12.3152 14.149 12.4887C14.0548 12.6622 13.9209 12.7961 13.7474 12.8904C13.5739 12.9884 13.3721 13.0374 13.142 13.0374ZM6.3193 14.0727C5.99118 14.0727 5.72905 13.986 5.53293 13.8125C5.34058 13.639 5.17275 13.3976 5.02943 13.0884L4.079 11.0121C4.16952 11.0121 4.25626 11.014 4.33924 11.0178C4.42221 11.0216 4.48821 11.0234 4.53724 11.0234C5.25384 11.0423 5.79506 11.0649 6.1609 11.0913C6.53051 11.1177 6.8228 11.1498 7.03778 11.1875L7.35459 12.7093C7.41494 12.9997 7.40551 13.2468 7.32631 13.4504C7.2471 13.6541 7.11699 13.8087 6.93595 13.9143C6.75869 14.0199 6.55314 14.0727 6.3193 14.0727Z" fill="#38F55B"/>
</svg>
