<svg width="32" height="32" viewBox="0 0 32 32" fill="none" xmlns="http://www.w3.org/2000/svg">
<path d="M28.6007 14.9684H26.7473C26.5051 12.4478 25.3934 10.0901 23.6028 8.29956C21.8123 6.50904 19.4546 5.39732 16.934 5.15509V3.30176C16.934 3.03654 16.8286 2.78219 16.6411 2.59465C16.4536 2.40711 16.1992 2.30176 15.934 2.30176C15.6688 2.30176 15.4144 2.40711 15.2269 2.59465C15.0393 2.78219 14.934 3.03654 14.934 3.30176V5.15509C12.4244 5.40943 10.0809 6.52678 8.30341 8.31646C6.52589 10.1061 5.42454 12.4572 5.18732 14.9684H3.33398C3.20266 14.9684 3.07263 14.9943 2.9513 15.0445C2.82998 15.0948 2.71974 15.1685 2.62688 15.2613C2.53402 15.3542 2.46036 15.4644 2.4101 15.5857C2.35985 15.7071 2.33398 15.8371 2.33398 15.9684C2.33398 16.0997 2.35985 16.2298 2.4101 16.3511C2.46036 16.4724 2.53402 16.5827 2.62688 16.6755C2.71974 16.7684 2.82998 16.842 2.9513 16.8923C3.07263 16.9426 3.20266 16.9684 3.33398 16.9684H5.18732C5.42954 19.489 6.54126 21.8468 8.33179 23.6373C10.1223 25.4278 12.4801 26.5395 15.0007 26.7818V28.6351C15.0007 28.9003 15.106 29.1547 15.2935 29.3422C15.4811 29.5297 15.7354 29.6351 16.0007 29.6351C16.2659 29.6351 16.5202 29.5297 16.7078 29.3422C16.8953 29.1547 17.0007 28.9003 17.0007 28.6351V26.7818C19.5203 26.5371 21.8767 25.4245 23.6667 23.6345C25.4568 21.8444 26.5693 19.4881 26.814 16.9684H28.6673C28.7986 16.9684 28.9287 16.9426 29.05 16.8923C29.1713 16.842 29.2816 16.7684 29.3744 16.6755C29.4673 16.5827 29.5409 16.4724 29.5912 16.3511C29.6415 16.2298 29.6673 16.0997 29.6673 15.9684C29.6673 15.8371 29.6415 15.7071 29.5912 15.5857C29.5409 15.4644 29.4673 15.3542 29.3744 15.2613C29.2816 15.1685 29.1713 15.0948 29.05 15.0445C28.9287 14.9943 28.7986 14.9684 28.6673 14.9684H28.6007ZM15.934 24.8218C14.183 24.8218 12.4713 24.3025 11.0153 23.3297C9.55941 22.3569 8.42466 20.9742 7.75457 19.3564C7.08448 17.7387 6.90916 15.9586 7.25077 14.2412C7.59237 12.5238 8.43557 10.9463 9.67373 9.70817C10.9119 8.47001 12.4894 7.62681 14.2068 7.28521C15.9242 6.9436 17.7043 7.11892 19.322 7.78901C20.9397 8.4591 22.3224 9.59385 23.2953 11.0498C24.2681 12.5057 24.7873 14.2174 24.7873 15.9684C24.7873 18.3177 23.855 20.571 22.195 22.2334C20.5351 23.8958 18.2833 24.8316 15.934 24.8351V24.8218Z" fill="#3F63D9"/>
<path d="M21.9739 15.983C21.9739 17.1808 21.6185 18.3517 20.9528 19.3475C20.287 20.3432 19.3408 21.1191 18.2339 21.5769C17.1271 22.0346 15.9093 22.1537 14.7347 21.9191C13.5601 21.6844 12.4815 21.1066 11.6355 20.2587C10.7894 19.4107 10.2139 18.3309 9.98188 17.1558C9.74982 15.9807 9.8716 14.7631 10.3318 13.6573C10.792 12.5514 11.57 11.6069 12.5672 10.9434C13.5644 10.2798 14.7361 9.92706 15.9339 9.9297C16.7282 9.9297 17.5147 10.0864 18.2483 10.3907C18.982 10.6951 19.6485 11.1412 20.2095 11.7035C20.7705 12.2658 21.2152 12.9332 21.5179 13.6675C21.8207 14.4019 21.9756 15.1887 21.9739 15.983Z" fill="#3F63D9"/>
</svg>
