<svg width="17" height="17" viewBox="0 0 17 17" fill="none" xmlns="http://www.w3.org/2000/svg">
<path d="M0 8.18059C0 7.936 0.0859375 7.72777 0.257812 7.55589C0.436298 7.3774 0.644531 7.28816 0.882512 7.28816H7.29808V0.882512C7.29808 0.644531 7.38401 0.439603 7.55589 0.267728C7.72776 0.0892427 7.936 0 8.18059 0C8.42518 0 8.63341 0.0892427 8.80529 0.267728C8.98377 0.439603 9.07302 0.644531 9.07302 0.882512V7.28816H15.4787C15.7166 7.28816 15.9216 7.3774 16.0935 7.55589C16.2719 7.72777 16.3612 7.936 16.3612 8.18059C16.3612 8.42518 16.2719 8.63341 16.0935 8.80529C15.9216 8.97716 15.7166 9.0631 15.4787 9.0631H9.07302V15.4787C9.07302 15.7166 8.98377 15.9216 8.80529 16.0934C8.63341 16.2719 8.42518 16.3612 8.18059 16.3612C7.936 16.3612 7.72776 16.2719 7.55589 16.0934C7.38401 15.9216 7.29808 15.7166 7.29808 15.4787V9.0631H0.882512C0.644531 9.0631 0.436298 8.97716 0.257812 8.80529C0.0859375 8.63341 0 8.42518 0 8.18059Z" fill="#93A2B3"/>
</svg>
