<svg width="32" height="32" viewBox="0 0 32 32" fill="none" xmlns="http://www.w3.org/2000/svg">
<path d="M23.5 29.9999H8.5C4.91 29.9999 2 27.0907 2 23.5017C2 19.9126 4.91 17.0034 8.5 17.0034H23.5C27.09 17.0034 30 19.9126 30 23.5017C30 27.0907 27.09 29.9999 23.5 29.9999Z" fill="#321B41"/>
<path d="M6.80866 8.43925C6.71274 5.91149 7.85719 3.9917 10.3537 3.9917H21.6714C23.2284 3.9917 25.327 5.16477 25.1766 8.35315C25.0563 10.9039 24.6051 19.0411 24.3946 22.7909H7.61064C7.35998 18.7704 6.88079 10.3402 6.80866 8.43925Z" fill="#533566"/>
<path d="M21.7174 21.742H10.2824C8.88241 21.742 7.86429 20.8013 7.42554 19.4717V23.0698C7.42554 24.5652 8.76866 25.7466 10.2768 25.7466H21.7218C23.2299 25.7466 24.573 24.555 24.573 23.0698V19.5329C24.1349 20.8625 23.1174 21.742 21.7174 21.742Z" fill="#F8312F"/>
</svg>
